<svg width="110" height="16" viewBox="0 0 110 16" fill="none" xmlns="http://www.w3.org/2000/svg">
<g clip-path="url(#clip0_3:80)">
<path d="M0 8.73766C0 7.75892 0.194951 6.89228 0.584853 6.13759C0.98622 5.38292 1.5252 4.79923 2.2018 4.38652C2.88986 3.96202 3.65246 3.74977 4.48961 3.74977C5.10886 3.74977 5.71665 3.89127 6.31296 4.17427C6.92073 4.44548 7.40242 4.81102 7.75788 5.2709V0.56601H9.73609V13.6548H7.75788V12.1867C7.43683 12.6584 6.98954 13.0475 6.4162 13.3541C5.85426 13.6607 5.20633 13.814 4.4724 13.814C3.64673 13.814 2.88986 13.6017 2.2018 13.1773C1.5252 12.741 0.98622 12.1395 0.584853 11.3731C0.194951 10.5949 0 9.71635 0 8.73766ZM7.75788 8.77303C7.75788 8.10088 7.62031 7.51724 7.34506 7.02198C7.08131 6.52673 6.73155 6.14938 6.29577 5.88996C5.85999 5.63054 5.38981 5.50083 4.88524 5.50083C4.38066 5.50083 3.91049 5.63054 3.47471 5.88996C3.03894 6.13759 2.68344 6.50901 2.40821 7.00427C2.14446 7.48776 2.01258 8.06551 2.01258 8.73766C2.01258 9.40975 2.14446 9.99934 2.40821 10.5064C2.68344 11.0135 3.03894 11.4025 3.47471 11.6738C3.92195 11.9332 4.39213 12.0629 4.88524 12.0629C5.38981 12.0629 5.85999 11.9332 6.29577 11.6738C6.73155 11.4144 7.08131 11.0371 7.34506 10.5418C7.62031 10.0348 7.75788 9.44518 7.75788 8.77303Z" fill="white"/>
<path d="M20.9985 8.54311C20.9985 8.9086 20.9756 9.23879 20.9297 9.53355H13.6878C13.7452 10.3118 14.0261 10.9368 14.5307 11.4085C15.0353 11.8801 15.6546 12.1159 16.3885 12.1159C17.4435 12.1159 18.1889 11.662 18.6247 10.754H20.7405C20.4538 11.6502 19.932 12.3872 19.1752 12.965C18.4297 13.531 17.5009 13.814 16.3885 13.814C15.4826 13.814 14.6684 13.6076 13.9459 13.1949C13.2348 12.7704 12.673 12.1808 12.2601 11.4261C11.8588 10.6597 11.6581 9.7753 11.6581 8.77302C11.6581 7.77074 11.853 6.89227 12.2429 6.13758C12.6443 5.37111 13.2005 4.78153 13.9115 4.36882C14.634 3.95612 15.4596 3.74976 16.3885 3.74976C17.283 3.74976 18.08 3.95022 18.7795 4.35113C19.479 4.75205 20.0238 5.31805 20.4136 6.04914C20.8035 6.76846 20.9985 7.59973 20.9985 8.54311ZM18.9515 7.90632C18.9401 7.16344 18.682 6.56797 18.1774 6.11989C17.6729 5.6718 17.0479 5.44776 16.3025 5.44776C15.6259 5.44776 15.0468 5.6718 14.5651 6.11989C14.0835 6.5562 13.7968 7.15167 13.705 7.90632H18.9515Z" fill="white"/>
<path d="M26.5922 11.8506L29.2757 3.90894H31.357L27.7447 13.6548H25.4053L21.8102 3.90894H23.9088L26.5922 11.8506Z" fill="white"/>
<path d="M33.6306 13.7786C33.2751 13.7786 32.977 13.6548 32.7361 13.4072C32.4953 13.1595 32.3749 12.8529 32.3749 12.4874C32.3749 12.1219 32.4953 11.8153 32.7361 11.5677C32.977 11.32 33.2751 11.1962 33.6306 11.1962C33.9747 11.1962 34.2671 11.32 34.5079 11.5677C34.7487 11.8153 34.8691 12.1219 34.8691 12.4874C34.8691 12.8529 34.7487 13.1595 34.5079 13.4072C34.2671 13.6548 33.9747 13.7786 33.6306 13.7786Z" fill="white"/>
<path d="M40.9621 5.55389H39.2076V13.6548H37.2294V5.55389H36.1113V3.90894H37.2294V3.21913C37.2294 2.09892 37.5161 1.28529 38.0895 0.778251C38.6743 0.259417 39.586 0 40.8245 0V1.68032C40.2282 1.68032 39.8096 1.79823 39.5688 2.03407C39.3279 2.25811 39.2076 2.65313 39.2076 3.21913V3.90894H40.9621V5.55389Z" fill="white"/>
<path d="M43.6977 2.61776C43.3422 2.61776 43.044 2.49396 42.8032 2.24633C42.5624 1.9987 42.442 1.69212 42.442 1.32657C42.442 0.961034 42.5624 0.654447 42.8032 0.406824C43.044 0.159198 43.3422 0.0353851 43.6977 0.0353851C44.0417 0.0353851 44.3341 0.159198 44.575 0.406824C44.8158 0.654447 44.9362 0.961034 44.9362 1.32657C44.9362 1.69212 44.8158 1.9987 44.575 2.24633C44.3341 2.49396 44.0417 2.61776 43.6977 2.61776ZM44.6609 3.90895V13.6548H42.7V3.90895H44.6609Z" fill="white"/>
<path d="M52.0176 3.74976C52.763 3.74976 53.4282 3.90894 54.013 4.22732C54.6093 4.5457 55.0737 5.01737 55.4063 5.64233C55.7389 6.26728 55.9051 7.02197 55.9051 7.90632V13.6548H53.9614V8.20703C53.9614 7.33445 53.7492 6.66818 53.3249 6.20832C52.9006 5.73666 52.3215 5.50082 51.5876 5.50082C50.8537 5.50082 50.2688 5.73666 49.833 6.20832C49.4087 6.66818 49.1966 7.33445 49.1966 8.20703V13.6548H47.2356V3.90894H49.1966V5.02326C49.5177 4.62234 49.9247 4.30986 50.4179 4.08582C50.9225 3.86178 51.4557 3.74976 52.0176 3.74976Z" fill="white"/>
<path d="M57.7528 8.73765C57.7528 7.75891 57.9478 6.89227 58.3377 6.13758C58.739 5.38291 59.278 4.79922 59.9546 4.38651C60.6427 3.96201 61.3996 3.74976 62.2252 3.74976C62.9707 3.74976 63.6186 3.90305 64.169 4.20963C64.7312 4.50443 65.1782 4.87586 65.5108 5.32395V3.90894H67.4888V13.6548H65.5108V12.2044C65.1782 12.6643 64.7254 13.0475 64.1517 13.3541C63.5784 13.6607 62.9247 13.814 62.1908 13.814C61.3766 13.814 60.6312 13.6017 59.9546 13.1772C59.278 12.741 58.739 12.1395 58.3377 11.3731C57.9478 10.5949 57.7528 9.71633 57.7528 8.73765ZM65.5108 8.77302C65.5108 8.10087 65.3733 7.51723 65.0976 7.02197C64.8341 6.52672 64.4843 6.14937 64.0488 5.88995C63.6128 5.63053 63.1426 5.50082 62.6381 5.50082C62.1335 5.50082 61.6633 5.63053 61.2275 5.88995C60.7918 6.13758 60.4363 6.509 60.161 7.00426C59.8973 7.48774 59.7654 8.0655 59.7654 8.73765C59.7654 9.40974 59.8973 9.99933 60.161 10.5064C60.4363 11.0134 60.7918 11.4025 61.2275 11.6738C61.6748 11.9332 62.1449 12.0629 62.6381 12.0629C63.1426 12.0629 63.6128 11.9332 64.0488 11.6738C64.4843 11.4144 64.8341 11.037 65.0976 10.5418C65.3733 10.0348 65.5108 9.44517 65.5108 8.77302Z" fill="white"/>
<path d="M74.8467 3.74976C75.5917 3.74976 76.2569 3.90894 76.842 4.22732C77.4381 4.5457 77.903 5.01737 78.2356 5.64233C78.5681 6.26728 78.7344 7.02197 78.7344 7.90632V13.6548H76.7902V8.20703C76.7902 7.33445 76.5779 6.66818 76.1539 6.20832C75.7299 5.73666 75.1505 5.50082 74.4163 5.50082C73.6827 5.50082 73.0976 5.73666 72.662 6.20832C72.2374 6.66818 72.0257 7.33445 72.0257 8.20703V13.6548H70.0649V3.90894H72.0257V5.02326C72.3467 4.62234 72.7535 4.30986 73.2466 4.08582C73.7512 3.86178 74.2845 3.74976 74.8467 3.74976Z" fill="white"/>
<path d="M80.582 8.77302C80.582 7.77074 80.7771 6.89227 81.1666 6.13758C81.5682 5.37111 82.1182 4.78153 82.8178 4.36882C83.5175 3.95612 84.3201 3.74976 85.2263 3.74976C86.373 3.74976 87.3188 4.03276 88.0645 4.59876C88.8211 5.15297 89.3314 5.94891 89.5956 6.98661H87.4794C87.3073 6.50312 87.0323 6.12578 86.6537 5.85458C86.2758 5.58337 85.7993 5.44776 85.2263 5.44776C84.4237 5.44776 83.7816 5.74255 83.2994 6.33214C82.8293 6.90992 82.5946 7.72354 82.5946 8.77302C82.5946 9.8225 82.8293 10.642 83.2994 11.2316C83.7816 11.8212 84.4237 12.1159 85.2263 12.1159C86.3615 12.1159 87.1129 11.603 87.4794 10.5771H89.5956C89.3199 11.5677 88.8038 12.3577 88.0473 12.9473C87.2901 13.5251 86.35 13.814 85.2263 13.814C84.3201 13.814 83.5175 13.6076 82.8178 13.1949C82.1182 12.7704 81.5682 12.1808 81.1666 11.4261C80.7771 10.6597 80.582 9.7753 80.582 8.77302Z" fill="white"/>
<path d="M100.236 8.54311C100.236 8.9086 100.214 9.23879 100.168 9.53355H92.9257C92.9833 10.3118 93.264 10.9368 93.7686 11.4085C94.2732 11.8801 94.8923 12.1159 95.6264 12.1159C96.6817 12.1159 97.4267 11.662 97.8629 10.754H99.9785C99.692 11.6502 99.1701 12.3872 98.4129 12.965C97.6678 13.531 96.7386 13.814 95.6264 13.814C94.7202 13.814 93.9061 13.6076 93.1841 13.1949C92.4729 12.7704 91.9108 12.1808 91.4983 11.4261C91.0966 10.6597 90.8958 9.7753 90.8958 8.77302C90.8958 7.77074 91.0909 6.89227 91.481 6.13758C91.882 5.37111 92.4384 4.78153 93.1495 4.36882C93.8722 3.95612 94.6978 3.74976 95.6264 3.74976C96.5212 3.74976 97.318 3.95022 98.0177 4.35113C98.7173 4.75205 99.2616 5.31805 99.6517 6.04914C100.042 6.76846 100.236 7.59973 100.236 8.54311ZM98.1897 7.90632C98.1782 7.16344 97.9198 6.56797 97.4152 6.11989C96.9106 5.6718 96.2858 5.44776 95.5408 5.44776C94.8641 5.44776 94.2847 5.6718 93.8031 6.11989C93.3216 6.5562 93.0351 7.15167 92.943 7.90632H98.1897Z" fill="white"/>
<path d="M33.6309 13.7786C33.2755 13.7786 32.9772 13.6548 32.7365 13.4072C32.4956 13.1595 32.3752 12.853 32.3752 12.4874C32.3752 12.1219 32.4956 11.8153 32.7365 11.5677C32.9772 11.32 33.2755 11.1962 33.6309 11.1962C33.975 11.1962 34.2674 11.32 34.5082 11.5677C34.749 11.8153 34.8694 12.1219 34.8694 12.4874C34.8694 12.853 34.749 13.1595 34.5082 13.4072C34.2674 13.6548 33.975 13.7786 33.6309 13.7786Z" fill="#49AA26"/>
<path d="M109.999 11.08C109.999 11.5792 109.855 12.0486 109.566 12.488C109.288 12.9273 108.871 13.2968 108.315 13.5964C107.771 13.896 107.123 14.0757 106.371 14.1357V15.3489H105.242V14.1357C104.155 14.0457 103.275 13.7512 102.604 13.2519C101.932 12.7526 101.596 12.0936 101.596 11.2747H103.715C103.75 11.6641 103.894 11.9887 104.149 12.2483C104.403 12.4979 104.768 12.6578 105.242 12.7277V9.43233C104.467 9.26253 103.836 9.0928 103.35 8.923C102.864 8.74329 102.448 8.46368 102.1 8.08418C101.765 7.70475 101.596 7.18551 101.596 6.5264C101.596 5.69759 101.932 5.01356 102.604 4.47432C103.275 3.9251 104.155 3.60555 105.242 3.51568V2.3024H106.371V3.51568C107.389 3.59557 108.205 3.87517 108.819 4.35449C109.444 4.82383 109.797 5.47291 109.878 6.30173H107.76C107.725 5.99217 107.586 5.71756 107.343 5.4779C107.1 5.22825 106.776 5.0585 106.371 4.96862V8.20403C107.146 8.36379 107.777 8.53359 108.264 8.7133C108.75 8.88309 109.16 9.15771 109.496 9.53715C109.832 9.9066 109.999 10.4209 109.999 11.08ZM103.61 6.43655C103.61 6.84598 103.75 7.16549 104.027 7.39521C104.316 7.62487 104.722 7.80957 105.242 7.94937V4.92368C104.745 4.97362 104.346 5.1284 104.045 5.38803C103.756 5.64766 103.61 5.99717 103.61 6.43655ZM106.371 12.7277C106.88 12.6578 107.279 12.483 107.569 12.2034C107.858 11.9138 108.003 11.5693 108.003 11.1698C108.003 10.7704 107.858 10.4608 107.569 10.2411C107.291 10.0115 106.892 9.82673 106.371 9.68692V12.7277Z" fill="#49AA26"/>
</g>
<defs>
<clipPath id="clip0_3:80">
<rect width="110" height="15.3488" fill="white"/>
</clipPath>
</defs>
</svg>
